<svg xmlns="http://www.w3.org/2000/svg" id="Layer_1" data-name="Layer 1" width="1134" height="86" viewBox="0 0 1134 86">
  <defs>
    <style>

      .cls-1 {
        fill: #fff;
      }

      .cls-2 {
        fill: #99999a;
      }

      .cls-3 {
        fill: #dadfe1;
      }

      .cls-4 {
        fill: #007cba;
      }

      .cls-5 {
        fill: #00a1df;
      }

      .cls-6 {
        fill: #39b54a;
      }

      .cls-7 {
        fill: none;
        stroke: #00a1df;
        stroke-miterlimit: 10;
        stroke-width: 1.22px;
      }

    </style>
  </defs>
  <title>nav_svg_spirte</title>
  <g>
    <g>
      <polygon class="cls-1" points="87.78 47.61 82.36 36.06 79.54 36.06 79.54 54.62 82.36 54.62 82.36 42.21 86.74 51.26 88.83 51.26 93.1 42.21 93.1 54.62 95.92 54.62 95.92 36.06 93.1 36.06 87.78 47.61"/>
      <path class="cls-1" d="M106.5,49.46a2.63,2.63,0,0,1-2.74,2.95c-1.49,0-2.66-.89-2.66-2.95V41.4H98.44v8.45a4.86,4.86,0,0,0,1.33,3.73,4.6,4.6,0,0,0,3.26,1.2,4.72,4.72,0,0,0,3.52-1.49v1.33h2.61V41.4H106.5v8.06Z"/>
      <path class="cls-1" d="M114.37,50.82V36.06h-2.66V51a3.37,3.37,0,0,0,3.62,3.65H117V52.35H115.8A1.28,1.28,0,0,1,114.37,50.82Z"/>
      <path class="cls-1" d="M123.37,41.25c-3.39,0-5.61,2.48-5.61,6.75,0,5,2.63,6.78,5.95,6.78a6.21,6.21,0,0,0,5-2.06L127,51.13a3.94,3.94,0,0,1-3.21,1.36c-2.16,0-3.36-1.43-3.36-3.7H129V47.61C129,43.85,126.92,41.25,123.37,41.25Zm-3,5.68a4.19,4.19,0,0,1,.34-1.8,2.76,2.76,0,0,1,2.63-1.67A2.72,2.72,0,0,1,126,45.13a4.13,4.13,0,0,1,.36,1.8H120.4Z"/>
      <path class="cls-1" d="M142.11,45.52a6.16,6.16,0,0,0-3.47-1.38l-2.11-.31a4.15,4.15,0,0,1-2.09-.86,2.22,2.22,0,0,1-.7-1.72c0-1.64,1.2-2.9,3.39-2.9a5.45,5.45,0,0,1,4,1.43L143,38a7.73,7.73,0,0,0-5.76-2.11c-3.86,0-6.21,2.22-6.21,5.45a4.62,4.62,0,0,0,1.36,3.55,6.34,6.34,0,0,0,3.52,1.48l2.19,0.31a3.21,3.21,0,0,1,2,.78,2.49,2.49,0,0,1,.73,1.93c0,1.8-1.41,2.84-3.83,2.84a6.13,6.13,0,0,1-4.75-1.77l-1.88,1.85a8.4,8.4,0,0,0,6.57,2.45c3.89,0,6.68-2,6.68-5.45A4.86,4.86,0,0,0,142.11,45.52Z"/>
      <path class="cls-1" d="M150.63,41.25a5.29,5.29,0,0,0-3.94,1.56c-1.25,1.3-1.56,3-1.56,5.19s0.31,3.91,1.56,5.21a5.29,5.29,0,0,0,3.94,1.57,5.35,5.35,0,0,0,4-1.57c1.25-1.3,1.56-3,1.56-5.21s-0.31-3.89-1.56-5.19A5.35,5.35,0,0,0,150.63,41.25Zm2,10.38a2.72,2.72,0,0,1-2,.78,2.65,2.65,0,0,1-1.93-.78c-0.81-.81-0.91-2.19-0.91-3.62s0.1-2.82.91-3.62a2.63,2.63,0,0,1,1.93-.76,2.7,2.7,0,0,1,2,.76c0.81,0.81.91,2.19,0.91,3.62S153.4,50.82,152.59,51.62Z"/>
      <path class="cls-1" d="M158.85,39.6v2h-1.51v2h1.51v11h2.66v-11h2.63v-2h-2.63v-1.9A1.34,1.34,0,0,1,163,38.19h1.18V35.92h-1.67A3.44,3.44,0,0,0,158.85,39.6Z"/>
      <path class="cls-1" d="M170,37.62H167.3v4h-1.51v2h1.51v7.27a3.44,3.44,0,0,0,3.62,3.68h1.59V52.35h-1.09A1.35,1.35,0,0,1,170,50.82V43.67h2.55v-2H170v-4Z"/>
      <path class="cls-1" d="M175.81,39.67a1.42,1.42,0,0,0-.76-0.75,1.46,1.46,0,0,0-1.11,0,1.45,1.45,0,0,0-.46.3,1.41,1.41,0,0,0-.31.45,1.37,1.37,0,0,0-.11.56,1.4,1.4,0,0,0,.11.57,1.43,1.43,0,0,0,.31.45,1.41,1.41,0,0,0,.46.3,1.49,1.49,0,0,0,1.11,0,1.39,1.39,0,0,0,.45-0.3,1.46,1.46,0,0,0,.31-0.45,1.4,1.4,0,0,0,.11-0.57A1.37,1.37,0,0,0,175.81,39.67Zm-0.23,1a1.19,1.19,0,0,1-.25.39,1.15,1.15,0,0,1-.37.26,1.14,1.14,0,0,1-.46.09,1.15,1.15,0,0,1-.84-0.35,1.19,1.19,0,0,1-.25-0.39,1.29,1.29,0,0,1-.09-0.49,1.26,1.26,0,0,1,.09-0.48,1.16,1.16,0,0,1,1.09-.73,1.14,1.14,0,0,1,.46.09,1.16,1.16,0,0,1,.62.64,1.25,1.25,0,0,1,.09.48A1.29,1.29,0,0,1,175.57,40.72Z"/>
      <path class="cls-1" d="M175,40.21a0.4,0.4,0,0,0,.13-0.33,0.44,0.44,0,0,0-.14-0.36,0.68,0.68,0,0,0-.44-0.12h-0.64v1.66h0.26V40.35h0.27l0.45,0.72h0.28l-0.48-.74A0.57,0.57,0,0,0,175,40.21Zm-0.57-.07H174.2V39.61h0.47l0.12,0a0.22,0.22,0,0,1,.08.08,0.24,0.24,0,0,1,0,.13,0.28,0.28,0,0,1,0,.15,0.22,0.22,0,0,1-.1.08l-0.14,0h-0.17Z"/>
    </g>
    <g>
      <path class="cls-2" d="M71.14,45.32a22.07,22.07,0,1,1-22.07-22,22,22,0,0,1,22.07,22h0Z"/>
      <circle class="cls-3" cx="49.08" cy="45.45" r="20.13"/>
      <path class="cls-4" d="M43.48,55.17A10.1,10.1,0,0,1,37.83,46a10.4,10.4,0,0,1,1.74-5.79L46.83,51h4.39l7.26-10.82A10.4,10.4,0,0,1,60.22,46a10.15,10.15,0,0,1-5,8.84l1.4,5.35a16.52,16.52,0,0,0,.87-28.9l-8.43,13L40.73,31.23A16.52,16.52,0,0,0,42.1,60.47Z"/>
    </g>
  </g>
  <polygon class="cls-2" points="285.11 49.88 278.71 41.35 279.51 40.75 285.11 48.22 290.71 40.75 291.51 41.35 285.11 49.88"/>
  <polygon class="cls-1" points="333.36 40.75 339.76 49.28 338.96 49.88 333.36 42.42 327.76 49.88 326.96 49.28 333.36 40.75"/>
  <g>
    <path class="cls-5" d="M390.47,58.43a13.11,13.11,0,1,1,13.11-13.11A13.12,13.12,0,0,1,390.47,58.43Zm0-25a11.89,11.89,0,1,0,11.89,11.89A11.9,11.9,0,0,0,390.47,33.43Z"/>
    <polygon class="cls-5" points="388.68 52.46 387.82 51.59 393.88 45.53 387.4 39.04 388.26 38.18 395.61 45.53 388.68 52.46"/>
  </g>
  <polygon class="cls-6" points="434.94 46.26 435.71 45.32 442.39 50.7 452.66 38.22 453.61 38.98 442.58 52.41 434.94 46.26"/>
  <g>
    <g>
      <path class="cls-5" d="M505,29.94A15.37,15.37,0,1,0,520.4,45.32,15.43,15.43,0,0,0,505,29.94Zm0,29.55A14.09,14.09,0,1,1,519,45.41,14.09,14.09,0,0,1,505,59.5Z"/>
      <path class="cls-5" d="M501,52.21a7.07,7.07,0,0,1-3.95-6.43,7.28,7.28,0,0,1,1.22-4.05l5.08,7.57h3.07l5.08-7.57a7.28,7.28,0,0,1,1.22,4.05A7.1,7.1,0,0,1,509.27,52l1,3.75a11.56,11.56,0,0,0,.61-20.22L505,44.6l-5.84-9.14a11.56,11.56,0,0,0,1,20.46Z"/>
    </g>
    <g>
      <polygon class="cls-5" points="532.05 46.92 528.25 38.84 526.28 38.84 526.28 51.83 528.25 51.83 528.25 43.14 531.32 49.48 532.78 49.48 535.77 43.14 535.77 51.83 537.74 51.83 537.74 38.84 535.77 38.84 532.05 46.92"/>
      <path class="cls-5" d="M545.14,48.22a1.84,1.84,0,0,1-1.92,2.06,1.8,1.8,0,0,1-1.86-2.06V42.58H539.5v5.91a3.4,3.4,0,0,0,.93,2.61,3.22,3.22,0,0,0,2.28.84,3.3,3.3,0,0,0,2.46-1v0.93H547V42.58h-1.86v5.64Z"/>
      <path class="cls-5" d="M550.65,49.17V38.84h-1.86V49.27a2.36,2.36,0,0,0,2.54,2.56h1.15V50.24h-0.82A0.89,0.89,0,0,1,550.65,49.17Z"/>
      <path class="cls-5" d="M557,42.47c-2.37,0-3.92,1.73-3.92,4.73,0,3.52,1.84,4.74,4.16,4.74a4.35,4.35,0,0,0,3.47-1.44l-1.19-1.11a2.76,2.76,0,0,1-2.24.95,2.28,2.28,0,0,1-2.35-2.59h6V46.92C560.87,44.29,559.43,42.47,557,42.47Zm-2.08,4a2.93,2.93,0,0,1,.24-1.26A1.93,1.93,0,0,1,557,44a1.91,1.91,0,0,1,1.83,1.17,2.89,2.89,0,0,1,.26,1.26h-4.16Z"/>
      <path class="cls-5" d="M570.06,45.46a4.31,4.31,0,0,0-2.43-1l-1.48-.22a2.9,2.9,0,0,1-1.46-.6,1.55,1.55,0,0,1-.49-1.2,2.07,2.07,0,0,1,2.37-2,3.81,3.81,0,0,1,2.83,1l1.26-1.24a5.41,5.41,0,0,0-4-1.48c-2.7,0-4.34,1.55-4.34,3.81a3.23,3.23,0,0,0,1,2.48,4.44,4.44,0,0,0,2.46,1l1.53,0.22a2.25,2.25,0,0,1,1.42.55,1.74,1.74,0,0,1,.51,1.35c0,1.26-1,2-2.68,2a4.29,4.29,0,0,1-3.32-1.24l-1.31,1.3a5.88,5.88,0,0,0,4.6,1.72c2.72,0,4.67-1.42,4.67-3.81A3.4,3.4,0,0,0,570.06,45.46Z"/>
      <path class="cls-5" d="M576,42.47a3.7,3.7,0,0,0-2.76,1.09,4.86,4.86,0,0,0-1.09,3.63,4.88,4.88,0,0,0,1.09,3.65,3.7,3.7,0,0,0,2.76,1.1,3.74,3.74,0,0,0,2.77-1.1,4.88,4.88,0,0,0,1.09-3.65,4.86,4.86,0,0,0-1.09-3.63A3.74,3.74,0,0,0,576,42.47Zm1.37,7.26a1.9,1.9,0,0,1-1.37.55,1.85,1.85,0,0,1-1.35-.55,3.57,3.57,0,0,1-.64-2.54,3.57,3.57,0,0,1,.64-2.54,1.84,1.84,0,0,1,1.35-.53,1.89,1.89,0,0,1,1.37.53,3.58,3.58,0,0,1,.64,2.54A3.58,3.58,0,0,1,577.4,49.73Z"/>
      <path class="cls-5" d="M581.78,41.32v1.42h-1.06v1.42h1.06v7.66h1.86V44.16h1.84V42.74h-1.84V41.41a0.94,0.94,0,0,1,1-1.08h0.82V38.74h-1.17A2.41,2.41,0,0,0,581.78,41.32Z"/>
      <path class="cls-5" d="M589.55,39.93h-1.86v2.81h-1.06v1.42h1.06v5.09a2.41,2.41,0,0,0,2.53,2.57h1.11V50.24h-0.77a0.94,0.94,0,0,1-1-1.08v-5h1.79V42.74h-1.79V39.93Z"/>
      <path class="cls-5" d="M593.65,41.37a1,1,0,0,0-.53-0.52,1,1,0,0,0-.77,0,1,1,0,0,0-.32.21,1,1,0,0,0-.22.31,1,1,0,0,0-.08.39,1,1,0,0,0,.08.4,1,1,0,0,0,.22.32,1,1,0,0,0,.32.21,1,1,0,0,0,.77,0,1,1,0,0,0,.32-0.21,1,1,0,0,0,.22-0.32,1,1,0,0,0,.08-0.4A1,1,0,0,0,593.65,41.37Zm-0.16.73a0.83,0.83,0,0,1-.17.27,0.81,0.81,0,0,1-.26.18,0.79,0.79,0,0,1-.32.07,0.81,0.81,0,0,1-.59-0.25A0.83,0.83,0,0,1,592,42.1a0.9,0.9,0,0,1-.06-0.34,0.88,0.88,0,0,1,.06-0.33,0.81,0.81,0,0,1,.76-0.51,0.8,0.8,0,0,1,.32.07,0.81,0.81,0,0,1,.43.45,0.88,0.88,0,0,1,.06.33A0.9,0.9,0,0,1,593.49,42.1Z"/>
      <path class="cls-5" d="M593.11,41.74a0.28,0.28,0,0,0,.09-0.23,0.31,0.31,0,0,0-.1-0.25,0.48,0.48,0,0,0-.31-0.08h-0.45v1.17h0.18v-0.5h0.19l0.32,0.5h0.19l-0.33-.51A0.4,0.4,0,0,0,593.11,41.74Zm-0.4,0h-0.19V41.33h0.33l0.08,0L593,41.41a0.17,0.17,0,0,1,0,.09,0.2,0.2,0,0,1,0,.11,0.15,0.15,0,0,1-.07.06l-0.1,0h-0.12Z"/>
    </g>
  </g>
  <g>
    <path class="cls-5" d="M680.38,57.82A17.52,17.52,0,0,1,670.91,55L669,53.81l2.26,0.26a11.49,11.49,0,0,0,7.4-1.62A6.52,6.52,0,0,1,674,48.11l-0.27-.84,0.87,0.16,0.32,0.05a6.54,6.54,0,0,1-3-5.52V41.07l0.78,0.36a5.51,5.51,0,0,0,.73.34,6.53,6.53,0,0,1-.58-7.4l0.38-.65,0.48,0.59a16.56,16.56,0,0,0,11.32,6,6.62,6.62,0,0,1,0-.8A6.52,6.52,0,0,1,696,34.86a11.45,11.45,0,0,0,3.37-1.33l1.19-.71-0.42,1.32a6.49,6.49,0,0,1-1.24,2.23,11.37,11.37,0,0,0,1.33-.49l1.66-.73-1,1.51A12.65,12.65,0,0,1,698,39.71q0,0.26,0,.52A17.42,17.42,0,0,1,680.38,57.82Zm-7-2.63a16.54,16.54,0,0,0,23.59-15q0-.38,0-0.75V39.19l0.23-.17a11.6,11.6,0,0,0,1.77-1.58,12.47,12.47,0,0,1-1.85.36l-2.44.29,2.11-1.26a5.51,5.51,0,0,0,1.77-1.7,12.52,12.52,0,0,1-2.57.8l-0.29.06-0.2-.21a5.48,5.48,0,0,0-9.32,5l0.16,0.68-0.7,0a17.61,17.61,0,0,1-12.22-5.84,5.48,5.48,0,0,0,2,6.62l1.52,1-1.83-.06a6.5,6.5,0,0,1-2.11-.42,5.48,5.48,0,0,0,4.33,4.59l2.17,0.44-2.14.59a6.3,6.3,0,0,1-2,.22,5.47,5.47,0,0,0,4.79,3l1.48,0-1.16.91A12.47,12.47,0,0,1,673.34,55.19Z"/>
    <path class="cls-5" d="M789.18,41.25V37.84h-4.55l-5-4.3-5.46,4.3H770v3.29l-3,2.39V57.29h25.26V43.51Zm1.93,14.95H768V44.05l3-2.39V38.93h3.46l5-4,4.65,4h3.85V41.8l3,2.26V56.19Zm-19-9.5,7.46,5,7.49-5V40.14h-15v6.56ZM775,41.75h9.29v1.14H775V41.75Zm0,3.17h9.29v1.14H775V44.92Z"/>
    <g>
      <g id="Lozenge">
        <path class="cls-5" d="M826.66,57.29c-0.35,0-8.37-.08-10.92-0.32l-0.45-.06a5.34,5.34,0,0,1-3.48-1.5,7.28,7.28,0,0,1-1.44-3.53,48.27,48.27,0,0,1-.33-5.26V44.2a48.54,48.54,0,0,1,.32-5.25,7.31,7.31,0,0,1,1.45-3.55,5,5,0,0,1,3.39-1.52l0.19,0c4.47-.32,11.18-0.33,11.25-0.33s6.79,0,11.23.32l0.22,0a5,5,0,0,1,3.4,1.53,7.29,7.29,0,0,1,1.44,3.53h0a48.54,48.54,0,0,1,.32,5.25v2.42a48.54,48.54,0,0,1-.32,5.25,7.3,7.3,0,0,1-1.45,3.55,5,5,0,0,1-3.4,1.52l-0.19,0C833.44,57.28,826.73,57.29,826.66,57.29Zm0-22.46c-0.08,0-6.74,0-11.14.32l-0.19,0a3.72,3.72,0,0,0-2.59,1.13,6.08,6.08,0,0,0-1.09,2.81,48.26,48.26,0,0,0-.31,5.08v2.42a47.88,47.88,0,0,0,.32,5.09,6.09,6.09,0,0,0,1.09,2.79,4.1,4.1,0,0,0,2.7,1.11l0.48,0.07c2.44,0.23,10.66.31,10.74,0.31s6.73,0,11.12-.33l0.19,0a3.71,3.71,0,0,0,2.59-1.13,6.06,6.06,0,0,0,1.1-2.81,48.26,48.26,0,0,0,.31-5.08V44.2a48,48,0,0,0-.31-5.08,6.1,6.1,0,0,0-1.09-2.8A3.73,3.73,0,0,0,838,35.18l-0.22,0C833.4,34.84,826.73,34.83,826.67,34.83Z"/>
      </g>
      <path class="cls-5" d="M823.36,49.55L832,45.09l-8.63-4.5v9Z"/>
    </g>
    <g>
      <path class="cls-5" d="M647.92,57.29H628.79a2.23,2.23,0,0,1-2.25-2.21V35.74a2.23,2.23,0,0,1,2.25-2.21h19.12a2.23,2.23,0,0,1,2.25,2.21V55.09A2.23,2.23,0,0,1,647.92,57.29ZM628.79,34.71a1.05,1.05,0,0,0-1.07,1V55.09a1.05,1.05,0,0,0,1.07,1h19.12a1.05,1.05,0,0,0,1.07-1V35.74a1.05,1.05,0,0,0-1.07-1H628.79Z"/>
      <rect class="cls-5" x="630.55" y="42.83" width="3.39" height="10.2"/>
      <path class="cls-5" d="M632.24,41.44h0a1.77,1.77,0,1,1,1.94-1.76,1.75,1.75,0,0,1-1.94,1.76Z"/>
      <path class="cls-5" d="M646.16,53h-3.39V47.57c0-1.37-.49-2.31-1.72-2.31a1.85,1.85,0,0,0-1.74,1.24,2.32,2.32,0,0,0-.11.83V53h-3.39s0-9.24,0-10.2h3.39v1.45a3.36,3.36,0,0,1,3.05-1.69c2.23,0,3.9,1.46,3.9,4.59V53Z"/>
    </g>
    <path class="cls-5" d="M742.56,33.54h-20.1a1.83,1.83,0,0,0-1.83,1.83v20.1a1.83,1.83,0,0,0,1.83,1.83h20.1a1.83,1.83,0,0,0,1.83-1.83V35.36A1.83,1.83,0,0,0,742.56,33.54Zm0.67,21.93a0.67,0.67,0,0,1-.67.67H736.8V48h2.94l0.44-3.41H736.8V42.37a1.41,1.41,0,0,1,1.69-1.66h1.81v-3a24.13,24.13,0,0,0-2.63-.13c-2.6,0-4.39,1.59-4.39,4.51v2.51h-2.94V48h2.94v8.17H722.46a0.67,0.67,0,0,1-.67-0.67V35.36a0.67,0.67,0,0,1,.67-0.67h20.1a0.67,0.67,0,0,1,.67.67v20.1Z"/>
  </g>
  <polyline class="cls-7" points="959.08 38.61 966 45.53 959.5 52.02"/>
  <g>
    <rect class="cls-1" x="985.22" y="44.07" width="31.56" height="2.5" transform="translate(325.23 -694.54) rotate(45)"/>
    <rect class="cls-1" x="985.22" y="44.07" width="31.56" height="2.5" transform="translate(261.14 721.09) rotate(-45)"/>
  </g>
  <g>
    <polygon class="cls-5" points="1050.39 52.46 1043.04 45.11 1049.97 38.18 1050.84 39.04 1044.77 45.11 1051.26 51.59 1050.39 52.46"/>
    <rect class="cls-5" x="1043.91" y="44.71" width="18.1" height="1.22"/>
  </g>
  <g>
    <rect class="cls-1" x="1090.38" y="37.32" width="25.25" height="2"/>
    <rect class="cls-1" x="1090.38" y="44.32" width="25.25" height="2"/>
    <rect class="cls-1" x="1090.38" y="51.32" width="25.25" height="2"/>
  </g>
  <path class="cls-1" d="M232.64,50.06a8.66,8.66,0,0,0-.16-11.2A9.18,9.18,0,0,0,219.8,37.7a8.56,8.56,0,0,0-3.15,6,8.69,8.69,0,0,0,2.12,6.44,9.2,9.2,0,0,0,11.31,2.08l3.08,3.49,2.59-2.11Zm-8.71,1.8a7.89,7.89,0,0,1-4.25-2.55,7.48,7.48,0,0,1-1.82-5.54,7.36,7.36,0,0,1,2.71-5.12,8,8,0,0,1,11,1,7.44,7.44,0,0,1-.17,10h0a6.54,6.54,0,0,1-1.56,1.27A7.83,7.83,0,0,1,223.93,51.86Z"/>
  <g>
    <path class="cls-5" d="M883,48.76a2.06,2.06,0,0,0-2.9-.3l-0.55.46c-0.38.32-.76,0.64-1.16,0.92a1.35,1.35,0,0,1-1.08.28,4.24,4.24,0,0,1-1.41-1.34l-0.37-.45a10.58,10.58,0,0,1-1.74-2.56,1.4,1.4,0,0,1,.47-2.09l0.46-.34c0.19-.13.38-0.27,0.54-0.4a2.34,2.34,0,0,0,.35-3.29l-1.78-2.2a1.78,1.78,0,0,0-2.5-.26,7.48,7.48,0,0,0-3.07,5.69,10,10,0,0,0,2.54,6.41l2.82,3.48a7.81,7.81,0,0,0,5.45,2.87l0.66,0a7,7,0,0,0,4.69-1.75c1-.87,1.17-1.93.5-2.76Zm0.76,4.39a6,6,0,0,1-4.58,1.46,6.78,6.78,0,0,1-4.73-2.49l-2.83-3.49a9.13,9.13,0,0,1-2.31-5.75A6.63,6.63,0,0,1,872,38a0.74,0.74,0,0,1,1,.11l1.78,2.2a1.31,1.31,0,0,1-.19,1.84c-0.15.12-.31,0.24-0.48,0.36l-0.5.37h0a2.39,2.39,0,0,0-.78,3.33,11.53,11.53,0,0,0,1.9,2.81l0.34,0.42A4.83,4.83,0,0,0,877,51.09a2.25,2.25,0,0,0,2-.4c0.44-.3.84-0.64,1.24-1l0.53-.45a1,1,0,0,1,.75-0.22,1,1,0,0,1,.69.38l1.94,2.4A1,1,0,0,1,883.79,53.15Z"/>
    <path class="cls-5" d="M878.75,35.68a0.47,0.47,0,0,0-.49.43,0.46,0.46,0,0,0,.43.49,8.65,8.65,0,0,1,8.07,8.62,8.75,8.75,0,0,1-.07,1.07,0.46,0.46,0,0,0,.4.51h0.06a0.46,0.46,0,0,0,.46-0.4,9.82,9.82,0,0,0,.07-1.18A9.57,9.57,0,0,0,878.75,35.68Z"/>
    <path class="cls-5" d="M878.13,39.16a6.05,6.05,0,0,1,6,6,6,6,0,0,1-.17,1.44,0.46,0.46,0,0,0,.34.56h0.11a0.46,0.46,0,0,0,.45-0.35,7,7,0,0,0-6.77-8.62A0.46,0.46,0,1,0,878.13,39.16Z"/>
  </g>
  <path class="cls-5" d="M930.64,50.06a8.66,8.66,0,0,0-.16-11.2A9.18,9.18,0,0,0,917.8,37.7a8.56,8.56,0,0,0-3.15,6,8.69,8.69,0,0,0,2.12,6.44,9.2,9.2,0,0,0,11.31,2.08l3.08,3.49,2.59-2.11Zm-8.71,1.8a7.89,7.89,0,0,1-4.25-2.55,7.48,7.48,0,0,1-1.82-5.54,7.36,7.36,0,0,1,2.71-5.12,8,8,0,0,1,11,1,7.44,7.44,0,0,1-.17,10h0a6.54,6.54,0,0,1-1.56,1.27A7.83,7.83,0,0,1,921.93,51.86Z"/>
</svg>
