<?xml version="1.0" encoding="utf-8"?>
<!-- Generator: Adobe Illustrator 18.1.1, SVG Export Plug-In . SVG Version: 6.00 Build 0)  -->
<svg version="1.1" xmlns="http://www.w3.org/2000/svg" xmlns:xlink="http://www.w3.org/1999/xlink" x="0px" y="0px"
	 viewBox="0 0 260 260" enable-background="new 0 0 260 260" xml:space="preserve">
<g id="guides" display="none">
	<g display="inline">
		<g>
			<line fill="none" stroke="#E6E6E6" stroke-miterlimit="10" x1="0" y1="0" x2="260" y2="0"/>
			<line fill="none" stroke="#E6E6E6" stroke-miterlimit="10" x1="0" y1="10" x2="260" y2="10"/>
			<line fill="none" stroke="#E6E6E6" stroke-miterlimit="10" x1="0" y1="20" x2="260" y2="20"/>
			<line fill="none" stroke="#E6E6E6" stroke-miterlimit="10" x1="0" y1="30" x2="260" y2="30"/>
			<line fill="none" stroke="#E6E6E6" stroke-miterlimit="10" x1="0" y1="40" x2="260" y2="40"/>
			<line fill="none" stroke="#E6E6E6" stroke-miterlimit="10" x1="0" y1="50" x2="260" y2="50"/>
			<line fill="none" stroke="#E6E6E6" stroke-miterlimit="10" x1="0" y1="60" x2="260" y2="60"/>
			<line fill="none" stroke="#E6E6E6" stroke-miterlimit="10" x1="0" y1="70" x2="260" y2="70"/>
			<line fill="none" stroke="#E6E6E6" stroke-miterlimit="10" x1="0" y1="80" x2="260" y2="80"/>
			<line fill="none" stroke="#E6E6E6" stroke-miterlimit="10" x1="0" y1="90" x2="260" y2="90"/>
			<line fill="none" stroke="#E6E6E6" stroke-miterlimit="10" x1="0" y1="100" x2="260" y2="100"/>
			<line fill="none" stroke="#E6E6E6" stroke-miterlimit="10" x1="0" y1="110" x2="260" y2="110"/>
			<line fill="none" stroke="#E6E6E6" stroke-miterlimit="10" x1="0" y1="120" x2="260" y2="120"/>
			<line fill="none" stroke="#E6E6E6" stroke-miterlimit="10" x1="0" y1="130" x2="260" y2="130"/>
			<line fill="none" stroke="#E6E6E6" stroke-miterlimit="10" x1="0" y1="140" x2="260" y2="140"/>
			<line fill="none" stroke="#E6E6E6" stroke-miterlimit="10" x1="0" y1="150" x2="260" y2="150"/>
			<line fill="none" stroke="#E6E6E6" stroke-miterlimit="10" x1="0" y1="160" x2="260" y2="160"/>
			<line fill="none" stroke="#E6E6E6" stroke-miterlimit="10" x1="0" y1="170" x2="260" y2="170"/>
			<line fill="none" stroke="#E6E6E6" stroke-miterlimit="10" x1="0" y1="180" x2="260" y2="180"/>
			<line fill="none" stroke="#E6E6E6" stroke-miterlimit="10" x1="0" y1="190" x2="260" y2="190"/>
			<line fill="none" stroke="#E6E6E6" stroke-miterlimit="10" x1="0" y1="200" x2="260" y2="200"/>
			<line fill="none" stroke="#E6E6E6" stroke-miterlimit="10" x1="0" y1="210" x2="260" y2="210"/>
			<line fill="none" stroke="#E6E6E6" stroke-miterlimit="10" x1="0" y1="220" x2="260" y2="220"/>
			<line fill="none" stroke="#E6E6E6" stroke-miterlimit="10" x1="0" y1="230" x2="260" y2="230"/>
			<line fill="none" stroke="#E6E6E6" stroke-miterlimit="10" x1="0" y1="240" x2="260" y2="240"/>
			<line fill="none" stroke="#E6E6E6" stroke-miterlimit="10" x1="0" y1="250" x2="260" y2="250"/>
			<line fill="none" stroke="#E6E6E6" stroke-miterlimit="10" x1="0" y1="260" x2="260" y2="260"/>
		</g>
	</g>
	<g display="inline">
		<line fill="none" stroke="#E6E6E6" stroke-miterlimit="10" x1="260" y1="0" x2="260" y2="260"/>
		<line fill="none" stroke="#E6E6E6" stroke-miterlimit="10" x1="250" y1="0" x2="250" y2="260"/>
		<line fill="none" stroke="#E6E6E6" stroke-miterlimit="10" x1="240" y1="0" x2="240" y2="260"/>
		<line fill="none" stroke="#E6E6E6" stroke-miterlimit="10" x1="230" y1="0" x2="230" y2="260"/>
		<line fill="none" stroke="#E6E6E6" stroke-miterlimit="10" x1="220" y1="0" x2="220" y2="260"/>
		<line fill="none" stroke="#E6E6E6" stroke-miterlimit="10" x1="210" y1="0" x2="210" y2="260"/>
		<line fill="none" stroke="#E6E6E6" stroke-miterlimit="10" x1="200" y1="0" x2="200" y2="260"/>
		<line fill="none" stroke="#E6E6E6" stroke-miterlimit="10" x1="190" y1="0" x2="190" y2="260"/>
		<line fill="none" stroke="#E6E6E6" stroke-miterlimit="10" x1="180" y1="0" x2="180" y2="260"/>
		<line fill="none" stroke="#E6E6E6" stroke-miterlimit="10" x1="170" y1="0" x2="170" y2="260"/>
		<line fill="none" stroke="#E6E6E6" stroke-miterlimit="10" x1="160" y1="0" x2="160" y2="260"/>
		<line fill="none" stroke="#E6E6E6" stroke-miterlimit="10" x1="150" y1="0" x2="150" y2="260"/>
		<line fill="none" stroke="#E6E6E6" stroke-miterlimit="10" x1="140" y1="0" x2="140" y2="260"/>
		<line fill="none" stroke="#E6E6E6" stroke-miterlimit="10" x1="130" y1="0" x2="130" y2="260"/>
		<line fill="none" stroke="#E6E6E6" stroke-miterlimit="10" x1="120" y1="0" x2="120" y2="260"/>
		<line fill="none" stroke="#E6E6E6" stroke-miterlimit="10" x1="110" y1="0" x2="110" y2="260"/>
		<line fill="none" stroke="#E6E6E6" stroke-miterlimit="10" x1="100" y1="0" x2="100" y2="260"/>
		<line fill="none" stroke="#E6E6E6" stroke-miterlimit="10" x1="90" y1="0" x2="90" y2="260"/>
		<line fill="none" stroke="#E6E6E6" stroke-miterlimit="10" x1="80" y1="0" x2="80" y2="260"/>
		<line fill="none" stroke="#E6E6E6" stroke-miterlimit="10" x1="70" y1="0" x2="70" y2="260"/>
		<line fill="none" stroke="#E6E6E6" stroke-miterlimit="10" x1="60" y1="0" x2="60" y2="260"/>
		<line fill="none" stroke="#E6E6E6" stroke-miterlimit="10" x1="50" y1="0" x2="50" y2="260"/>
		<line fill="none" stroke="#E6E6E6" stroke-miterlimit="10" x1="40" y1="0" x2="40" y2="260"/>
		<line fill="none" stroke="#E6E6E6" stroke-miterlimit="10" x1="30" y1="0" x2="30" y2="260"/>
		<line fill="none" stroke="#E6E6E6" stroke-miterlimit="10" x1="20" y1="0" x2="20" y2="260"/>
		<line fill="none" stroke="#E6E6E6" stroke-miterlimit="10" x1="10" y1="0" x2="10" y2="260"/>
		<line fill="none" stroke="#E6E6E6" stroke-miterlimit="10" x1="0" y1="0" x2="0" y2="260"/>
	</g>
	<circle display="inline" fill="none" stroke="#B3B3B3" stroke-miterlimit="10" cx="130" cy="130" r="120"/>
	<circle display="inline" fill="none" stroke="#E6E6E6" stroke-miterlimit="10" cx="130" cy="130" r="90"/>
	<circle display="inline" fill="none" stroke="#E6E6E6" stroke-miterlimit="10" cx="130" cy="130" r="110"/>
	<circle display="inline" fill="none" stroke="#E6E6E6" stroke-miterlimit="10" cx="130" cy="130" r="60"/>
	<rect x="40" y="10" display="inline" fill="none" stroke="#B3B3B3" stroke-miterlimit="10" width="180" height="240"/>
	<rect x="10" y="40" display="inline" fill="none" stroke="#B3B3B3" stroke-miterlimit="10" width="240" height="180"/>
	<rect x="20" y="20" display="inline" fill="none" stroke="#B3B3B3" stroke-miterlimit="10" width="220" height="220"/>
	<line display="inline" fill="none" stroke="#B3B3B3" stroke-miterlimit="10" x1="0" y1="130" x2="260" y2="130"/>
	<line display="inline" fill="none" stroke="#B3B3B3" stroke-miterlimit="10" x1="130" y1="0" x2="130" y2="260"/>
	<g display="inline">
		<line fill="none" stroke="#E6E6E6" stroke-miterlimit="10" x1="260" y1="221" x2="0" y2="39"/>
		<line fill="none" stroke="#E6E6E6" stroke-miterlimit="10" x1="260" y1="164.8" x2="0" y2="95.2"/>
		<line fill="none" stroke="#E6E6E6" stroke-miterlimit="10" x1="260" y1="39" x2="0" y2="221"/>
		<line fill="none" stroke="#E6E6E6" stroke-miterlimit="10" x1="260" y1="95.2" x2="0" y2="164.8"/>
	</g>
	<g display="inline">
		<line fill="none" stroke="#B3B3B3" stroke-miterlimit="10" x1="221" y1="0" x2="39" y2="260"/>
		<line fill="none" stroke="#B3B3B3" stroke-miterlimit="10" x1="164.8" y1="0" x2="95.2" y2="260"/>
		<line fill="none" stroke="#B3B3B3" stroke-miterlimit="10" x1="39" y1="0" x2="221" y2="260"/>
		<line fill="none" stroke="#B3B3B3" stroke-miterlimit="10" x1="95.2" y1="0" x2="164.8" y2="260"/>
	</g>
</g>
<g id="white" display="none">
	<rect display="inline" opacity="0.8" fill="#FFFFFF" width="260" height="260"/>
</g>
<g id="content">
	<g>
		<g>
			<path fill="#00B5D1" d="M130,30c55.1,0,100,44.9,100,100s-44.9,100-100,100S30,185.1,30,130S74.9,30,130,30 M130,20
				C69.2,20,20,69.2,20,130s49.2,110,110,110s110-49.2,110-110S190.8,20,130,20L130,20z"/>
			<circle fill="#00B5D1" cx="130" cy="190" r="20"/>
			<path fill="#00B5D1" d="M140,150V50.6c-3.3-0.4-6.6-0.6-10-0.6s-6.7,0.2-10,0.6V150H140z"/>
		</g>
		<rect x="0" y="0" fill="none" width="260" height="260"/>
	</g>
</g>
<g id="grid" display="none">
</g>
</svg>
