<?xml version="1.0" encoding="utf-8"?>
<!-- Generator: Adobe Illustrator 18.1.1, SVG Export Plug-In . SVG Version: 6.00 Build 0)  -->
<svg version="1.1" xmlns="http://www.w3.org/2000/svg" xmlns:xlink="http://www.w3.org/1999/xlink" x="0px" y="0px"
	 viewBox="0 0 160 160" enable-background="new 0 0 160 160" xml:space="preserve">
<g id="guides" display="none">
</g>
<g id="white" display="none">
</g>
<g id="content">
	<g>
		<rect x="0" fill="none" width="160" height="160"/>
		<g>
			<path fill="#FFFFFF" d="M128.4,133.4l-23.3-33.2c-4.5,5-10.1,8.9-16.4,11.5l23.3,33.2C118,141.7,123.5,137.8,128.4,133.4z"/>
			<g>
				<path fill="#FFFFFF" d="M71.8,30c22.1,0,40,17.9,40,40s-17.9,40-40,40s-40-17.9-40-40S49.8,30,71.8,30 M71.8,20
					c-27.6,0-50,22.4-50,50s22.4,50,50,50s50-22.4,50-50S99.5,20,71.8,20L71.8,20z"/>
			</g>
		</g>
	</g>
</g>
<g id="grid" display="none">
</g>
</svg>
