<?xml version="1.0" encoding="utf-8"?>
<!-- Generator: Adobe Illustrator 18.1.1, SVG Export Plug-In . SVG Version: 6.00 Build 0)  -->
<svg version="1.1" id="Capa_1" xmlns="http://www.w3.org/2000/svg" xmlns:xlink="http://www.w3.org/1999/xlink" x="0px" y="0px"
	 viewBox="-130 221 351 351" enable-background="new -130 221 351 351" xml:space="preserve">
<g>
	<g>
		<path d="M146.2,564c-2,0-4-0.5-5.8-1.4l-94.9-49.9l-94.9,49.9c-4.2,2.2-9.3,1.8-13.2-1c-3.8-2.8-5.8-7.5-5-12.2l18.1-105.7
			l-76.8-74.8c-3.4-3.3-4.6-8.3-3.2-12.8c1.5-4.5,5.4-7.8,10.1-8.5l106.1-15.4L34.3,236c2.1-4.3,6.5-7,11.2-7c4.8,0,9.1,2.7,11.2,7
			l47.5,96.2l106.1,15.4c4.7,0.7,8.6,4,10.1,8.5c1.5,4.5,0.2,9.5-3.2,12.8l-76.8,74.8l18.1,105.7c0.8,4.7-1.1,9.4-5,12.2
			C151.4,563.2,148.8,564,146.2,564z"/>
	</g>
</g>
</svg>
