<?xml version="1.0" encoding="utf-8"?>
<!-- Generator: Adobe Illustrator 18.1.1, SVG Export Plug-In . SVG Version: 6.00 Build 0)  -->
<svg version="1.1" xmlns="http://www.w3.org/2000/svg" xmlns:xlink="http://www.w3.org/1999/xlink" x="0px" y="0px"
	 viewBox="0 0 260 260" enable-background="new 0 0 260 260" xml:space="preserve">
<g id="guides" display="none">
	<g display="inline">
		<g>
			<line fill="none" stroke="#16BB64" stroke-miterlimit="10" x1="0" y1="0" x2="260" y2="0"/>
			<line fill="none" stroke="#16BB64" stroke-miterlimit="10" x1="0" y1="10" x2="260" y2="10"/>
			<line fill="none" stroke="#16BB64" stroke-miterlimit="10" x1="0" y1="20" x2="260" y2="20"/>
			<line fill="none" stroke="#16BB64" stroke-miterlimit="10" x1="0" y1="30" x2="260" y2="30"/>
			<line fill="none" stroke="#16BB64" stroke-miterlimit="10" x1="0" y1="40" x2="260" y2="40"/>
			<line fill="none" stroke="#16BB64" stroke-miterlimit="10" x1="0" y1="50" x2="260" y2="50"/>
			<line fill="none" stroke="#16BB64" stroke-miterlimit="10" x1="0" y1="60" x2="260" y2="60"/>
			<line fill="none" stroke="#16BB64" stroke-miterlimit="10" x1="0" y1="70" x2="260" y2="70"/>
			<line fill="none" stroke="#16BB64" stroke-miterlimit="10" x1="0" y1="80" x2="260" y2="80"/>
			<line fill="none" stroke="#16BB64" stroke-miterlimit="10" x1="0" y1="90" x2="260" y2="90"/>
			<line fill="none" stroke="#16BB64" stroke-miterlimit="10" x1="0" y1="100" x2="260" y2="100"/>
			<line fill="none" stroke="#16BB64" stroke-miterlimit="10" x1="0" y1="110" x2="260" y2="110"/>
			<line fill="none" stroke="#16BB64" stroke-miterlimit="10" x1="0" y1="120" x2="260" y2="120"/>
			<line fill="none" stroke="#16BB64" stroke-miterlimit="10" x1="0" y1="130" x2="260" y2="130"/>
			<line fill="none" stroke="#16BB64" stroke-miterlimit="10" x1="0" y1="140" x2="260" y2="140"/>
			<line fill="none" stroke="#16BB64" stroke-miterlimit="10" x1="0" y1="150" x2="260" y2="150"/>
			<line fill="none" stroke="#16BB64" stroke-miterlimit="10" x1="0" y1="160" x2="260" y2="160"/>
			<line fill="none" stroke="#16BB64" stroke-miterlimit="10" x1="0" y1="170" x2="260" y2="170"/>
			<line fill="none" stroke="#16BB64" stroke-miterlimit="10" x1="0" y1="180" x2="260" y2="180"/>
			<line fill="none" stroke="#16BB64" stroke-miterlimit="10" x1="0" y1="190" x2="260" y2="190"/>
			<line fill="none" stroke="#16BB64" stroke-miterlimit="10" x1="0" y1="200" x2="260" y2="200"/>
			<line fill="none" stroke="#16BB64" stroke-miterlimit="10" x1="0" y1="210" x2="260" y2="210"/>
			<line fill="none" stroke="#16BB64" stroke-miterlimit="10" x1="0" y1="220" x2="260" y2="220"/>
			<line fill="none" stroke="#16BB64" stroke-miterlimit="10" x1="0" y1="230" x2="260" y2="230"/>
			<line fill="none" stroke="#16BB64" stroke-miterlimit="10" x1="0" y1="240" x2="260" y2="240"/>
			<line fill="none" stroke="#16BB64" stroke-miterlimit="10" x1="0" y1="250" x2="260" y2="250"/>
			<line fill="none" stroke="#16BB64" stroke-miterlimit="10" x1="0" y1="260" x2="260" y2="260"/>
		</g>
	</g>
	<g display="inline">
		<line fill="none" stroke="#16BB64" stroke-miterlimit="10" x1="260" y1="0" x2="260" y2="260"/>
		<line fill="none" stroke="#16BB64" stroke-miterlimit="10" x1="250" y1="0" x2="250" y2="260"/>
		<line fill="none" stroke="#16BB64" stroke-miterlimit="10" x1="240" y1="0" x2="240" y2="260"/>
		<line fill="none" stroke="#16BB64" stroke-miterlimit="10" x1="230" y1="0" x2="230" y2="260"/>
		<line fill="none" stroke="#16BB64" stroke-miterlimit="10" x1="220" y1="0" x2="220" y2="260"/>
		<line fill="none" stroke="#16BB64" stroke-miterlimit="10" x1="210" y1="0" x2="210" y2="260"/>
		<line fill="none" stroke="#16BB64" stroke-miterlimit="10" x1="200" y1="0" x2="200" y2="260"/>
		<line fill="none" stroke="#16BB64" stroke-miterlimit="10" x1="190" y1="0" x2="190" y2="260"/>
		<line fill="none" stroke="#16BB64" stroke-miterlimit="10" x1="180" y1="0" x2="180" y2="260"/>
		<line fill="none" stroke="#16BB64" stroke-miterlimit="10" x1="170" y1="0" x2="170" y2="260"/>
		<line fill="none" stroke="#16BB64" stroke-miterlimit="10" x1="160" y1="0" x2="160" y2="260"/>
		<line fill="none" stroke="#16BB64" stroke-miterlimit="10" x1="150" y1="0" x2="150" y2="260"/>
		<line fill="none" stroke="#16BB64" stroke-miterlimit="10" x1="140" y1="0" x2="140" y2="260"/>
		<line fill="none" stroke="#16BB64" stroke-miterlimit="10" x1="130" y1="0" x2="130" y2="260"/>
		<line fill="none" stroke="#16BB64" stroke-miterlimit="10" x1="120" y1="0" x2="120" y2="260"/>
		<line fill="none" stroke="#16BB64" stroke-miterlimit="10" x1="110" y1="0" x2="110" y2="260"/>
		<line fill="none" stroke="#16BB64" stroke-miterlimit="10" x1="100" y1="0" x2="100" y2="260"/>
		<line fill="none" stroke="#16BB64" stroke-miterlimit="10" x1="90" y1="0" x2="90" y2="260"/>
		<line fill="none" stroke="#16BB64" stroke-miterlimit="10" x1="80" y1="0" x2="80" y2="260"/>
		<line fill="none" stroke="#16BB64" stroke-miterlimit="10" x1="70" y1="0" x2="70" y2="260"/>
		<line fill="none" stroke="#16BB64" stroke-miterlimit="10" x1="60" y1="0" x2="60" y2="260"/>
		<line fill="none" stroke="#16BB64" stroke-miterlimit="10" x1="50" y1="0" x2="50" y2="260"/>
		<line fill="none" stroke="#16BB64" stroke-miterlimit="10" x1="40" y1="0" x2="40" y2="260"/>
		<line fill="none" stroke="#16BB64" stroke-miterlimit="10" x1="30" y1="0" x2="30" y2="260"/>
		<line fill="none" stroke="#16BB64" stroke-miterlimit="10" x1="20" y1="0" x2="20" y2="260"/>
		<line fill="none" stroke="#16BB64" stroke-miterlimit="10" x1="10" y1="0" x2="10" y2="260"/>
		<line fill="none" stroke="#16BB64" stroke-miterlimit="10" x1="0" y1="0" x2="0" y2="260"/>
	</g>
	<circle display="inline" fill="none" stroke="#16BB64" stroke-miterlimit="10" cx="130" cy="130" r="120"/>
	<circle display="inline" fill="none" stroke="#16BB64" stroke-miterlimit="10" cx="130" cy="130" r="90"/>
	<circle display="inline" fill="none" stroke="#16BB64" stroke-miterlimit="10" cx="130" cy="130" r="110"/>
	<circle display="inline" fill="none" stroke="#16BB64" stroke-miterlimit="10" cx="130" cy="130" r="60"/>
	<rect x="40" y="10" display="inline" fill="none" stroke="#16BB64" stroke-miterlimit="10" width="180" height="240"/>
	<rect x="10" y="40" display="inline" fill="none" stroke="#16BB64" stroke-miterlimit="10" width="240" height="180"/>
	<rect x="20" y="20" display="inline" fill="none" stroke="#16BB64" stroke-miterlimit="10" width="220" height="220"/>
	<line display="inline" fill="none" stroke="#16BB64" stroke-miterlimit="10" x1="0" y1="130" x2="260" y2="130"/>
	<line display="inline" fill="none" stroke="#16BB64" stroke-miterlimit="10" x1="130" y1="0" x2="130" y2="260"/>
	<g display="inline">
		<line fill="none" stroke="#16BB64" stroke-miterlimit="10" x1="260" y1="221" x2="0" y2="39"/>
		<line fill="none" stroke="#16BB64" stroke-miterlimit="10" x1="260" y1="164.8" x2="0" y2="95.2"/>
		<line fill="none" stroke="#16BB64" stroke-miterlimit="10" x1="260" y1="39" x2="0" y2="221"/>
		<line fill="none" stroke="#16BB64" stroke-miterlimit="10" x1="260" y1="95.2" x2="0" y2="164.8"/>
	</g>
	<g display="inline">
		<line fill="none" stroke="#16BB64" stroke-miterlimit="10" x1="221" y1="0" x2="39" y2="260"/>
		<line fill="none" stroke="#16BB64" stroke-miterlimit="10" x1="164.8" y1="0" x2="95.2" y2="260"/>
		<line fill="none" stroke="#16BB64" stroke-miterlimit="10" x1="39" y1="0" x2="221" y2="260"/>
		<line fill="none" stroke="#16BB64" stroke-miterlimit="10" x1="95.2" y1="0" x2="164.8" y2="260"/>
	</g>
</g>
<g id="white" display="none">
	<rect display="inline" opacity="0.8" fill="#FFFFFF" width="260" height="260"/>
</g>
<g id="content">
	<g>
		<g>
			<g>
				<path fill="#16BB64" d="M130,49.9c1.4,0,2.8,0,4.2,0.1l1-20c-1.7-0.1-3.5-0.1-5.2-0.1s-3.5,0-5.2,0.1l1,20
					C127.2,49.9,128.6,49.9,130,49.9z"/>
				<path fill="#16BB64" d="M113.4,51.6l-4.2-19.6c-3.4,0.7-6.8,1.6-10.1,2.7l6.2,19C107.9,53,110.6,52.2,113.4,51.6z"/>
				<path fill="#16BB64" d="M93.7,58.6l-9.1-17.8c-3.1,1.6-6.1,3.3-9.1,5.2l10.9,16.8C88.8,61.3,91.2,59.9,93.7,58.6z"/>
				<path fill="#16BB64" d="M76.5,70.5L63.1,55.6c-2.6,2.3-5.1,4.8-7.4,7.4l14.9,13.4C72.4,74.3,74.4,72.3,76.5,70.5z"/>
				<path fill="#16BB64" d="M62.9,86.3L46.1,75.4c-1.9,2.9-3.7,5.9-5.2,9.1l17.8,9.1C60,91.1,61.4,88.7,62.9,86.3z"/>
				<path fill="#16BB64" d="M53.9,105.2l-19-6.2c-1.1,3.3-2,6.7-2.7,10.1l19.6,4.2C52.3,110.5,53.1,107.8,53.9,105.2z"/>
				<path fill="#16BB64" d="M50,129.9c0-1.4,0-2.8,0.1-4.2l-20-1c-0.1,1.7-0.1,3.5-0.1,5.2s0,3.5,0.1,5.2l20-1
					C50,132.7,50,131.3,50,129.9z"/>
				<path fill="#16BB64" d="M51.7,146.5l-19.6,4.2c0.7,3.4,1.6,6.8,2.7,10.1l19-6.2C53.1,152,52.3,149.3,51.7,146.5z"/>
				<path fill="#16BB64" d="M58.7,166.2l-17.8,9.1c1.6,3.1,3.3,6.1,5.2,9.1l16.8-10.9C61.4,171.1,60,168.7,58.7,166.2z"/>
				<path fill="#16BB64" d="M70.6,183.4l-14.9,13.4c2.3,2.6,4.8,5.1,7.4,7.4l13.4-14.9C74.4,187.5,72.4,185.5,70.6,183.4z"/>
				<path fill="#16BB64" d="M86.4,197l-10.9,16.8c2.9,1.9,5.9,3.7,9.1,5.2l9.1-17.8C91.2,199.9,88.8,198.5,86.4,197z"/>
				<path fill="#16BB64" d="M105.3,206l-6.2,19c3.3,1.1,6.7,2,10.1,2.7l4.2-19.6C110.6,207.6,107.9,206.8,105.3,206z"/>
				<path fill="#16BB64" d="M130,209.9c-1.4,0-2.8,0-4.2-0.1l-1,20c1.7,0.1,3.5,0.1,5.2,0.1s3.5,0,5.2-0.1l-1-20
					C132.8,209.9,131.4,209.9,130,209.9z"/>
				<path fill="#16BB64" d="M146.6,208.2l4.2,19.6c3.4-0.7,6.8-1.6,10.1-2.7l-6.2-19C152.1,206.8,149.4,207.6,146.6,208.2z"/>
				<path fill="#16BB64" d="M166.3,201.2l9.1,17.8c3.1-1.6,6.1-3.3,9.1-5.2L173.6,197C171.2,198.5,168.8,199.9,166.3,201.2z"/>
				<path fill="#16BB64" d="M183.5,189.3l13.4,14.9c2.6-2.3,5.1-4.8,7.4-7.4l-14.9-13.4C187.6,185.5,185.6,187.5,183.5,189.3z"/>
				<path fill="#16BB64" d="M197.1,173.5l16.8,10.9c1.9-2.9,3.7-5.9,5.2-9.1l-17.8-9.1C200,168.7,198.6,171.1,197.1,173.5z"/>
				<path fill="#16BB64" d="M206.1,154.6l19,6.2c1.1-3.3,2-6.7,2.7-10.1l-19.6-4.2C207.7,149.3,206.9,152,206.1,154.6z"/>
				<path fill="#16BB64" d="M210,129.9c0,1.4,0,2.8-0.1,4.2l20,1c0.1-1.7,0.1-3.5,0.1-5.2s0-3.5-0.1-5.2l-20,1
					C210,127.1,210,128.5,210,129.9z"/>
				<path fill="#16BB64" d="M208.3,113.3l19.6-4.2c-0.7-3.4-1.6-6.8-2.7-10.1l-19,6.2C206.9,107.8,207.7,110.5,208.3,113.3z"/>
				<path fill="#16BB64" d="M201.3,93.6l17.8-9.1c-1.6-3.1-3.3-6.1-5.2-9.1l-16.8,10.9C198.6,88.7,200,91.1,201.3,93.6z"/>
				<path fill="#16BB64" d="M189.4,76.4L204.3,63c-2.3-2.6-4.8-5.1-7.4-7.4l-13.4,14.9C185.6,72.3,187.6,74.3,189.4,76.4z"/>
				<path fill="#16BB64" d="M173.6,62.8L184.5,46c-2.9-1.9-5.9-3.7-9.1-5.2l-9.1,17.8C168.8,59.9,171.2,61.3,173.6,62.8z"/>
				<path fill="#16BB64" d="M154.7,53.8l6.2-19c-3.3-1.1-6.7-2-10.1-2.7l-4.2,19.6C149.4,52.2,152.1,53,154.7,53.8z"/>
				<g>
					<circle fill="#16BB64" cx="130" cy="85" r="15"/>
					<polygon fill="#16BB64" points="140,160 140,130 140,110 110,110 110,130 120,130 120,160 110,160 110,180 150,180 150,160 
											"/>
				</g>
			</g>
		</g>
	</g>
</g>
<g id="grid" display="none">
</g>
</svg>
